<?xml version="1.0" encoding="utf-8"?>
<!-- Generator: Adobe Illustrator 25.4.1, SVG Export Plug-In . SVG Version: 6.00 Build 0)  -->
<svg version="1.1" id="Layer_1" xmlns="http://www.w3.org/2000/svg" xmlns:xlink="http://www.w3.org/1999/xlink" x="0px" y="0px"
	 viewBox="0 0 429.61 381.18" style="enable-background:new 0 0 429.61 381.18;" xml:space="preserve">
<style type="text/css">
	.st0{fill:#EF4C26;}
	.st1{fill:#ED9429;}
</style>
<g>
	<path d="M388.9,362.21c-3.36-0.01-6.71-0.01-10.05-0.01l-5.49,0l-0.22-1.23c-0.05-0.27-0.1-0.48-0.13-0.66
		c-0.08-0.37-0.15-0.68-0.15-1.05l0-7.43c-0.01-30.42-0.02-61.88,0.07-92.82c0.01-1.68,1.38-3.54,2.71-4.36
		c4.03-2.49,6.36-5.47,7.33-9.36c1.79-7.21-1.5-11.95-4.58-14.66l-0.63-0.55l0.14-0.82c0.31-1.86,0.7-3.63,1.08-5.34
		c0.77-3.45,1.49-6.7,1.27-9.75c-0.7-9.71-6-16.47-15.32-19.53c-9.12-3-17.33-0.8-23.74,6.35c-6.43,7.17-7.62,15.45-3.54,24.62
		c1.25,2.79,0.47,4.42-1.18,6.12c-3.04,3.15-4.53,7.36-4.09,11.56c0.44,4.17,2.75,7.94,6.33,10.34c0.67,0.45,1.35,0.87,2.16,1.36
		c0.43,0.27,0.9,0.56,1.42,0.88l2.16,1.35l-2.73,1.5c-0.27,0.15-0.46,0.25-0.64,0.36c-35.14,20.21-71.57,21.93-108.29,5.11
		c-1.54-0.71-2.93-2.9-2.85-4.52c0.09-1.7,1.04-4.04,2.63-5.03c5.09-3.14,7.62-7.36,7.74-12.9c0.09-4.51-1.83-8.4-5.86-11.87
		l-0.84-0.73l0.45-1.02c5.33-12.05,3.65-22.5-4.76-29.42c-8.02-6.61-19-7.12-27.32-1.27c-4.25,2.99-7.17,6.95-8.67,11.76
		c-1.97,6.31-1.2,12.58,2.27,18.65l0.58,1l-0.82,0.81c-4.43,4.38-6.55,9-6.13,13.39c0.41,4.36,3.32,8.47,8.42,11.89
		c1.52,1.02,2.29,3.59,2.03,5.26c-0.26,1.64-1.76,3.57-3.35,4.3c-31.95,14.63-64.36,14.84-96.34,0.62
		c-2.89-1.28-5.62-2.79-8.51-4.38c-1.35-0.75-2.73-1.51-4.17-2.26l-2.35-1.24l2.28-1.37c0.6-0.36,1.11-0.66,1.57-0.93
		c0.81-0.48,1.44-0.85,2.05-1.25c3.57-2.36,5.9-6.14,6.4-10.35c0.48-4.05-0.82-8.07-3.58-11.03c-2.3-2.47-2.63-4.38-1.31-7.55
		c3.59-8.65,2.38-16.55-3.61-23.48c-6.11-7.07-14.07-9.49-23.01-6.98c-8.68,2.43-14.11,8.33-16.14,17.54
		c-1.37,6.21,0.68,11.67,2.87,16.2l0.49,1.02l-0.85,0.75c-4.36,3.86-6.44,8.7-5.86,13.62c0.53,4.49,3.24,8.55,7.07,10.6
		c2.93,1.56,3.53,3.64,3.52,6.29c-0.05,23.66-0.05,47.71-0.05,70.97l0,25.73c0,0.8-0.05,1.6-0.1,2.44
		c-0.02,0.41-0.05,0.83-0.07,1.29l-0.07,1.43h-1.43c-1.45,0-2.88,0.01-4.29,0.03c-3.34,0.03-6.5,0.06-9.72-0.08
		c-2.63-0.12-4.3,0.63-5.5,2.49v2.67c1.19,1.77,2.73,2.51,5.2,2.51c0,0,0.01,0,0.01,0c95.61-0.05,192.81-0.05,286.82-0.05l61.19,0
		c2,0,3.49-0.45,4.32-1.29c0.6-0.62,0.88-1.46,0.86-2.59C393.97,364.88,393.91,362.23,388.9,362.21z M62.49,204.36
		c5.41-4.26,12.7-4.35,18.12-0.22c5.56,4.23,7.47,11.57,4.66,17.85c-1.19,2.65-3.04,5.55-6.98,5.55c-0.48,0-1-0.04-1.55-0.14
		c-1.02-0.17-2.12-0.12-3.29-0.08c-1.15,0.05-2.29,0.05-3.44,0c-1.17-0.05-2.28-0.09-3.31,0.08c-5.12,0.84-7.32-2.66-8.52-5.38
		C55.45,215.9,57.26,208.47,62.49,204.36z M78.76,362.01H64.6V256.29h14.17V362.01z M74.72,248.56c-1.07-0.01-2.14-0.01-3.21-0.01h0
		c-1.05-0.03-2.1,0.01-3.15,0.01c-1.02,0.01-2.05,0.01-3.09,0.01c-1.34,0-2.69-0.01-4.04-0.05c-4.3-0.12-7.36-2.86-7.43-6.68
		c-0.03-1.76,0.61-3.42,1.82-4.67c1.35-1.39,3.3-2.18,5.48-2.21c7.01-0.1,14.15-0.1,21.21,0c2.21,0.03,4.07,0.76,5.37,2.1
		c1.2,1.24,1.82,2.9,1.79,4.79c-0.07,3.94-2.95,6.56-7.35,6.67C79.66,248.59,77.15,248.58,74.72,248.56z M199.51,361.94H87.1v-94.46
		l2.19,1.13c35.56,18.32,70.94,19.66,108.15,4.1l2.08-0.87V361.94z M343.34,213.12c1.32-6.13,5.23-10.13,11.32-11.56
		c5.76-1.36,10.83,0.39,14.67,5.07c3.84,4.67,4.45,10.23,1.75,16.08c-1.48,3.22-3.64,4.8-6.56,4.8c-0.41,0-0.83-0.03-1.27-0.09
		c-1.14-0.16-2.34-0.12-3.61-0.07c-0.6,0.02-1.21,0.04-1.81,0.04h-3.17c-4.16,0-7.45-1.35-9.52-3.91
		C343.07,220.87,342.44,217.3,343.34,213.12z M209.28,202.22c5.69-2.28,11.89-0.95,16.18,3.47c4.23,4.36,5.33,10.6,2.89,16.28
		c-1.05,2.45-2.91,5.55-7.08,5.55c-0.44,0-0.91-0.04-1.4-0.11c-1.05-0.16-2.16-0.11-3.34-0.07c-0.57,0.02-1.14,0.04-1.71,0.04h-3.52
		c-3.72,0-6.58-0.98-8.51-2.91c-1.93-1.93-2.9-4.8-2.89-8.53C199.92,210.06,203.78,204.42,209.28,202.22z M221.8,361.97h-13.97
		V256.23h13.97V361.97z M220.88,248.57c-1.05,0-2.09,0-3.12-0.01c-2.04-0.01-4.09-0.01-6.13,0c-2.26,0.01-4.59,0.02-6.9-0.02
		c-4.69-0.08-7.65-2.64-7.72-6.68c-0.03-1.87,0.58-3.51,1.77-4.73c1.36-1.39,3.35-2.14,5.77-2.17c6.78-0.07,13.68-0.07,20.5,0
		c2.42,0.02,4.42,0.78,5.78,2.17c1.19,1.22,1.81,2.85,1.78,4.72c-0.06,4.04-3.01,6.61-7.71,6.69
		C223.56,248.56,222.22,248.57,220.88,248.57z M365.03,361.99h-14.11l-0.08-1.42c-0.02-0.37-0.04-0.75-0.07-1.12
		c-0.06-0.85-0.12-1.73-0.12-2.62c-0.01-7.05-0.01-14.11-0.01-21.16l0-7.77c0-3.33-0.86-4.74-3.16-5.21
		c-1.23-0.25-2.3-0.04-3.08,0.59c-1.01,0.82-1.57,2.34-1.58,4.26c-0.04,6.84-0.03,13.8-0.03,20.53c0,2.8,0.01,5.6,0.01,8.4v5.53
		H229.94V271.7l2.09,0.9c36.29,15.6,71.81,14.26,108.59-4.1l2.17-1.08v6.46c0,2.6,0,5.2-0.01,7.8c-0.01,6.34-0.02,12.91,0.05,19.35
		c0.03,2.67,1.48,4.38,3.79,4.45c2.22,0.02,3.74-1.57,3.97-4.29c0.06-0.72,0.05-1.46,0.05-2.24l-0.01-0.81l0-41.84h14.38V361.99z
		 M357.96,248.59c-3.58,0-7.14-0.03-10.66-0.08c-2.21-0.03-4.07-0.76-5.37-2.1c-1.2-1.24-1.82-2.9-1.79-4.8
		c0.07-3.94,2.95-6.55,7.35-6.65c2.47-0.06,4.98-0.04,7.4-0.03c1.07,0.01,2.15,0.01,3.22,0.01h0c1.03-0.03,2.1-0.01,3.15-0.01
		c2.33-0.02,4.74-0.03,7.13,0.03c4.31,0.11,7.37,2.86,7.43,6.68c0.03,1.76-0.62,3.42-1.83,4.67c-1.35,1.39-3.3,2.18-5.47,2.21
		C364.99,248.57,361.46,248.59,357.96,248.59z"/>
	<path d="M157.27,51.91c-0.02,3.58-0.05,7.16-0.04,10.75c0,1.08,0.04,2.34,0.33,3.47c0.47,1.89,1.67,2.84,3.57,2.84
		c0.02,0,0.05,0,0.07,0c1.94-0.02,3.15-1.01,3.6-2.94c0.24-1.03,0.29-2.14,0.29-3.5c0.01-6.7,0.01-13.4,0.01-20.09
		c0-4.83,0-9.66,0-14.49c0.01-6.82,2.19-9.01,8.98-9.01c27.06,0,54.11,0,81.17,0c7.08,0,9.24,2.13,9.24,9.11
		c0.01,40.35,0.01,80.7,0,121.05c0,6.97-2.17,9.1-9.26,9.1c-26.94,0-53.88,0-80.82,0c-7.22,0-9.31-2.11-9.32-9.39
		c0-6.33,0-12.65,0-18.98c0-12.85,0-25.7-0.02-38.55c-0.01-4.49-2.15-5.08-3.76-5.13c-0.07,0-0.14,0-0.21,0
		c-1.11,0-1.99,0.31-2.62,0.92c-0.81,0.78-1.24,2.09-1.25,3.77l-0.03,8.52c-0.05,16.98-0.11,34.54,0.07,51.81
		c0.09,8.72,6.25,14.59,15.32,14.59c28.11,0.02,56.23,0.01,84.34-0.02c1.39,0,3.01-0.06,4.49-0.45c7.06-1.86,10.95-7.48,10.95-15.82
		c0-11.95,0-23.89-0.01-35.83c-0.02-27.47-0.04-55.87,0.12-83.81c0.06-9.84-3.45-15.55-11.37-18.47h-92.65
		c-8.06,2.98-11.67,8.84-11.35,18.43C157.37,37.17,157.32,44.66,157.27,51.91z"/>
	<path d="M36.84,136.13c2.87,5.65,7.09,8.41,12.91,8.42c25.45,0.07,51.07,0.07,76.16,0c7.68-0.02,13.94-6.32,13.95-14.03
		c0.06-27.84,0.06-56.08,0-83.92c-0.02-7.72-6.28-14.01-13.95-14.03c-25.07-0.06-50.7-0.06-76.16,0
		c-5.81,0.01-10.03,2.77-12.91,8.42c-0.31,0.61-0.62,1.21-0.94,1.82l-0.3,0.58v90.33l0.26,0.5
		C36.19,134.86,36.52,135.49,36.84,136.13z M52.49,40.11c23.53,0,47.05,0,70.58,0c6.91,0,9.24,2.33,9.25,9.22
		c0,9.22,0,18.43,0,27.65l0,11.52l0,11.61c0,9.19,0,18.38,0,27.57c0,6.98-2.31,9.33-9.14,9.34c-12.28,0-24.56,0-36.83,0
		c-11.37,0-22.73,0-34.1,0c-6.69,0-9.06-2.37-9.06-9.06c-0.01-26.23-0.01-52.46,0-78.7C43.18,42.43,45.53,40.12,52.49,40.11z"/>
	<path d="M394,47.63c-0.01-9.15-5.93-15.07-15.08-15.08c-12.18-0.01-24.37-0.01-36.55-0.01c-12.52,0-25.04,0-37.56,0.01
		c-9.15,0.01-15.07,5.92-15.08,15.07c-0.02,27.29-0.02,54.58,0,81.87c0.01,9.15,5.92,15.07,15.07,15.08c24.7,0.02,49.4,0.02,74.1,0
		c9.15-0.01,15.07-5.93,15.08-15.08c0.02-9.55,0.01-19.1,0.01-28.65l0-12.28l0-12.28C394.01,66.74,394.02,57.19,394,47.63z
		 M386.44,128.26c0,6.21-2.51,8.75-8.66,8.75c-12.18,0.01-24.36,0.01-36.54,0.01c-11.82,0-23.63,0-35.45-0.01
		c-5.94,0-8.47-2.57-8.48-8.57c-0.01-9.6-0.01-19.2-0.01-28.8l0-11.43l0-11.09c0-9.36,0-18.72,0-28.09c0-6.42,2.48-8.92,8.83-8.93
		c23.88-0.01,47.76-0.01,71.64,0c6.15,0,8.66,2.54,8.67,8.74C386.45,75.33,386.45,101.8,386.44,128.26z"/>
	<path d="M243.01,32.55c-9.65,0-19.29-0.01-28.94-0.01c-9.3,0-18.59,0-27.88,0.01c-5.14,0-7.75,2.56-7.76,7.6
		c-0.06,31.1-0.06,63.63,0,96.7c0.01,5.27,2.55,7.72,8,7.72c14.87,0.01,29.74,0.01,44.61,0.01l11.15,0c6.92,0,9.03-2.15,9.03-9.2
		c0.01-11.47,0.01-22.95,0-34.42l0-12.52l0-13.85c0.01-11.26,0.01-22.53-0.02-33.79C251.19,35.02,248.74,32.56,243.01,32.55z
		 M243.1,136.82h-56.64V40.37h56.64V136.82z"/>
	<path d="M64.5,123.4c15.51,0.02,31.02,0.02,46.52,0c5.3-0.01,7.67-2.44,7.68-7.89c0.01-6.24,0.01-12.48,0.01-18.72l0-8.07l0-8.17
		c0-6.32,0.01-12.64-0.01-18.97c-0.01-5.43-2.39-7.85-7.7-7.86c-7.65-0.01-15.31-0.01-22.96-0.01c-7.85,0-15.71,0-23.56,0.01
		c-5.38,0.01-7.68,2.36-7.68,7.88c-0.01,17.98-0.01,35.95,0,53.93C56.8,120.97,59.18,123.4,64.5,123.4z M64.54,61.57h46.35v54.11
		H64.54V61.57z"/>
	<path d="M372.83,80.64c0-6.35,0.01-12.7-0.01-19.05c-0.01-5.42-2.39-7.85-7.71-7.85c-7.65-0.01-15.31-0.01-22.96-0.01
		c-7.85,0-15.71,0-23.56,0.01c-5.38,0.01-7.67,2.36-7.68,7.88c-0.01,17.98-0.01,35.95,0,53.93c0,5.43,2.38,7.85,7.71,7.86
		c15.51,0.02,31.01,0.02,46.52,0c5.22-0.01,7.65-2.4,7.67-7.54c0.02-6.29,0.02-12.58,0.01-18.87l0-8.27L372.83,80.64z
		 M365.04,115.65h-46.41V61.54h46.41V115.65z"/>
</g>
</svg>
