<?xml version="1.0" encoding="utf-8"?>
<!-- Generator: Adobe Illustrator 25.4.1, SVG Export Plug-In . SVG Version: 6.00 Build 0)  -->
<svg version="1.1" id="Layer_1" xmlns="http://www.w3.org/2000/svg" xmlns:xlink="http://www.w3.org/1999/xlink" x="0px" y="0px"
	 viewBox="0 0 429.61 381.18" style="enable-background:new 0 0 429.61 381.18;" xml:space="preserve">
<style type="text/css">
	.st0{fill:#EF4C26;}
	.st1{fill:#ED9429;}
</style>
<g>
	<path d="M404.86,74.62c-0.03-3.23-0.39-6.35-1.09-9.27c-3.21-13.41-15.73-26.91-36.45-26.91c-0.06,0-0.12,0-0.19,0
		c-48.12,0.19-97.05,0.15-144.36,0.12c-19.25-0.01-38.5-0.02-57.74-0.02c-1.14,0-2.19,0-3.22,0.1c-2.26,0.22-3.5,1.48-3.7,3.75
		c-0.25,2.84,1.74,3.94,3.45,4.37c0.87,0.22,1.89,0.19,2.96,0.16c0.38-0.01,0.77-0.06,1.14-0.02c54.89,0.01,109.78,0.01,164.67,0.01
		h26.77v23.56c0,7.45-0.96,8.39-8.51,8.39c-88.33,0-176.65,0-264.98,0c-0.31,0-0.64,0.02-0.97,0.05c-1.09,0.08-2.32,0.16-3.41-0.41
		c-0.63-0.33-3.76-2.07-3.83-4.35c-0.19-6.46-0.17-12.81-0.15-19.53c0.01-2.05,0.01-4.12,0.01-6.21v-1.5l21.12,0
		c14.13,0.01,28.26,0.01,42.4-0.02c3.17-0.01,5.02-1.51,5.06-4.13c0.02-1.25-0.32-2.23-1-2.92c-0.81-0.82-2.15-1.26-3.86-1.26
		c-6.74,0-13.49-0.02-20.23-0.04c-19.86-0.05-40.39-0.11-60.57,0.29c-12.99,0.25-23.3,7.08-29.8,19.75
		c-1.13,2.2-1.87,4.58-2.65,7.11c-0.34,1.09-0.68,2.18-1.05,3.26v55.64c0.06,0.17,0.12,0.34,0.18,0.52
		c0.21,0.58,0.42,1.18,0.57,1.83c2.4,10.13,7.76,17.69,15.92,22.47c3.21,1.88,6.73,3.2,10.46,4.6c1.68,0.63,3.43,1.29,5.15,2
		l0.93,0.38v178.36H35.45c-2.21,0-4,1.79-4,4s1.79,4,4,4h358.72c2.21,0,4-1.79,4-4s-1.79-4-4-4h-22.48V155.31l1.78-0.38
		c0.39-0.08,0.72-0.15,1.06-0.22c18.72-3.56,30.36-17.62,30.38-36.69l0.01-9.01C404.94,97.74,404.96,86.08,404.86,74.62z
		 M183.74,282.13c-0.92-0.94-2.42-1.46-4.23-1.47c-9.52-0.03-19.05-0.03-28.57-0.03c-4.82,0-9.64,0-14.46,0
		c-0.68,0-1.36-0.04-2.11-0.09c-0.34-0.02-0.69-0.04-1.06-0.06l-1.43-0.07V119.7h164.98l0.12,1.37c0.03,0.31,0.06,0.61,0.1,0.91
		c0.08,0.69,0.16,1.4,0.16,2.13c0.01,57.12,0.02,114.25,0,171.37c0,8.14-4.25,14.71-11.37,17.58c-4.8,1.93-9.94,1.5-14.09-1.2
		c-4.14-2.69-6.62-7.19-6.81-12.34c-0.1-2.8-0.08-5.63-0.06-8.37c0.01-1.71,0.03-3.43,0.01-5.14c-0.04-3.94-1.44-5.34-5.38-5.35
		c-18.71-0.04-37.34-0.04-55.37,0c-1.85,0-3.28,0.47-4.13,1.35c-0.7,0.72-1.04,1.72-1.01,3c0.04,1.72,0.61,4.01,5.09,4.03
		c11.25,0.05,22.7,0.04,33.77,0.04l17.73,0l3.63,25.25l-130.87,0c-12.67,0-18.32-5.62-18.33-18.22v-7.03l67.44,0
		c0.69,0,1.38,0.01,2.07-0.02c1.92-0.08,5.15-0.71,5.23-4.08C184.81,283.83,184.46,282.87,183.74,282.13z M123.22,280.64h-1.5
		c-1.52,0-3.01,0-4.5-0.01c-3.32-0.01-6.57-0.02-9.82,0.02c-4.2,0.04-5.56,1.39-5.59,5.54c-0.02,2.82-0.02,5.65-0.01,8.47l0,2.75
		c0.02,15.62,9.74,25.33,25.37,25.34c60.52,0.05,106.92,0.04,150.45-0.05c3.6-0.01,7.11-0.54,10.16-1.55
		c11.36-3.76,17.89-13.71,17.9-27.29c0.02-31.9,0.02-63.8,0.01-95.7l0-42.76h33.84v179.36H89.99V155.43h33.23V280.64z M81.37,334.74
		H66.71V155.35h14.66V334.74z M348.36,334.74V155.3h14.54v179.43H348.36z M396.69,118.59c-0.12,16.21-12.02,28-28.29,28.05
		c-7.63,0.02-15.34,0.03-22.99,0.03c-5.69,0-11.36,0-16.94-0.01c-5.9,0-11.78,0-17.7-0.01H306v-27.2l15.9,0
		c12.33,0,24.66,0,36.99-0.02c1.16,0,2.65-0.06,3.94-0.47c1.82-0.58,2.65-1.89,2.55-3.98c-0.1-2.07-1.07-3.27-2.96-3.67
		c-1.44-0.3-3.02-0.35-4.52-0.35c-93.54-0.02-187.08-0.02-280.62-0.01c-1.47,0-2.68,0.01-3.87,0.2c-2.45,0.39-3.69,1.77-3.67,4.11
		c0.01,2.23,1.31,3.61,3.85,4.1c0.66,0.13,1.41,0.11,2.2,0.09c0.29-0.01,0.58-0.01,0.87-0.01c10.88,0,21.75,0,32.63,0h13.96v26.91
		l-1.42,0.08c-0.44,0.02-0.85,0.05-1.26,0.08c-0.89,0.06-1.72,0.12-2.59,0.12l-4.58,0c-17.18,0.01-34.36,0.02-51.55,0
		c-17.28-0.02-28.92-11.64-28.97-28.9l-0.02-6.8c-0.04-11.88-0.08-24.17,0.05-36.25c0.09-8.39,3.42-15.85,9.38-21
		c6.14-5.31,14.35-7.57,23.11-6.38l1.3,0.18l0,7.95c0,5.19,0,10.4,0,15.61c0.01,11.08,5.11,16.24,16.07,16.24l266.78,0
		c10.83,0,15.89-5.06,15.92-15.92l0-1.55c0.02-6.72,0.04-13.44,0.07-20.16c0-0.45,0.14-0.8,0.24-1.03l0.04-0.11l0.25-0.79l0.81-0.21
		c8.08-2.06,18.59,2.51,24.47,10.63c3.51,4.85,5.3,10.44,5.32,16.62C396.75,90.41,396.79,104.48,396.69,118.59z"/>
	<path d="M194.31,233.33l0,11.53c0,4.44-0.01,8.88,0.01,13.32c0.03,5.39,1.13,6.48,6.54,6.48c23.57,0.01,47.13,0.01,70.7,0
		c5.56,0,6.75-1.19,6.76-6.71c0.01-39.03,0.01-78.06,0-117.08c0-5.43-1.15-6.6-6.45-6.6c-36.61-0.03-73.99-0.03-111.1,0
		c-5.3,0-6.44,1.18-6.44,6.62c-0.01,28.55-0.01,57.11,0,85.66c0,5.64,1.12,6.78,6.62,6.78c7.35,0,14.71,0,22.23,0l9.64,0H194.31z
		 M163.15,224.89v-82h65.11l0,18.11c-0.01,6.94-0.01,13.88,0.02,20.82c0.01,1.7,0.5,3.12,1.4,4c0.7,0.69,1.64,1.04,2.71,1.03
		c2.51-0.02,4.08-1.98,4.09-5.11c0.02-8.88,0.02-17.76,0.02-26.75l0-12.03h33.15v71.38h-12.05c-2.01,0.01-4.03,0-6.04-0.01
		c-4.64-0.01-9.44-0.02-14.15,0.03c-2.18,0.02-5.82,0.59-5.81,4.17c0.01,2.64,2.18,4.22,5.8,4.23c6.29,0.02,12.57,0.01,18.86,0.01
		l13.43,0v33.09h-66.95l0-76c0-0.59,0.01-1.18-0.01-1.77c-0.11-5.37-3.16-5.41-4.17-5.43c-1.28-0.04-2.25,0.3-2.91,0.95
		c-0.85,0.84-1.29,2.28-1.3,4.28c-0.05,9.23-0.04,18.62-0.03,27.71l0,19.29H163.15z"/>
</g>
</svg>
