<?xml version="1.0" encoding="utf-8"?>
<!-- Generator: Adobe Illustrator 25.4.1, SVG Export Plug-In . SVG Version: 6.00 Build 0)  -->
<svg version="1.1" id="Layer_1" xmlns="http://www.w3.org/2000/svg" xmlns:xlink="http://www.w3.org/1999/xlink" x="0px" y="0px"
	 viewBox="0 0 217.26 217.26" style="enable-background:new 0 0 217.26 217.26;" xml:space="preserve">
<style type="text/css">
	.st0{fill:#F04C26;}
	.st1{fill:#FFFFFF;}
	.st2{fill:#A7A9AC;}
	.st3{fill:#939598;}
</style>
<g>
	<g>
		<g>
			<path class="st1" d="M30.91,77.51c0.4,0.47,0.65,1,0.76,1.59c0.11,0.59,0.05,1.19-0.16,1.79c-0.25,0.7-0.65,1.26-1.18,1.66
				c-0.53,0.4-1.15,0.61-1.86,0.63l0.37-1.01c0.45-0.04,0.85-0.19,1.18-0.45c0.33-0.26,0.58-0.63,0.75-1.09
				c0.16-0.45,0.2-0.89,0.12-1.33s-0.28-0.82-0.59-1.16c-0.31-0.34-0.73-0.61-1.25-0.8c-0.51-0.19-1-0.25-1.46-0.18
				c-0.46,0.06-0.86,0.24-1.2,0.52c-0.34,0.28-0.59,0.65-0.75,1.1c-0.17,0.47-0.21,0.91-0.13,1.32c0.09,0.41,0.29,0.78,0.61,1.1
				l-0.37,1.01c-0.53-0.46-0.87-1.02-1.01-1.66c-0.15-0.65-0.09-1.32,0.16-2.02c0.22-0.6,0.55-1.09,1.01-1.48
				c0.46-0.39,0.99-0.63,1.59-0.74c0.6-0.1,1.22-0.04,1.85,0.19C30,76.69,30.51,77.04,30.91,77.51z"/>
			<path class="st1" d="M28.67,90.01l-6.63-1.77l0.23-0.87l3,0.8l0.9-3.37l-3-0.8l0.23-0.87l6.63,1.77l-0.23,0.86l-2.91-0.78
				l-0.9,3.38l2.91,0.78L28.67,90.01z"/>
			<path class="st1" d="M20.98,93.6l3.06-1.09l0.2-1.06l-2.76-0.52l0.16-0.88l6.74,1.26l-0.41,2.18c-0.09,0.51-0.26,0.92-0.5,1.24
				c-0.24,0.32-0.52,0.54-0.85,0.66c-0.33,0.12-0.68,0.14-1.06,0.07c-0.46-0.09-0.85-0.3-1.15-0.63c-0.3-0.33-0.47-0.78-0.48-1.34
				l-3.14,1.16L20.98,93.6z M24.94,91.58l-0.24,1.3c-0.09,0.48-0.04,0.86,0.15,1.14c0.19,0.28,0.48,0.46,0.88,0.53
				c0.4,0.07,0.73,0.01,0.99-0.18c0.26-0.19,0.44-0.53,0.53-1.02l0.24-1.3L24.94,91.58z"/>
			<path class="st1" d="M27.27,97.97l-6.8-0.92l0.12-0.89l6.8,0.92L27.27,97.97z"/>
			<path class="st1" d="M20.33,99.74c0.19-0.34,0.44-0.6,0.74-0.78c0.3-0.18,0.64-0.25,1.01-0.23L22,99.68
				c-0.32,0-0.6,0.11-0.84,0.33c-0.24,0.21-0.38,0.54-0.42,0.99c-0.04,0.42,0.04,0.77,0.23,1.03c0.19,0.26,0.45,0.41,0.79,0.44
				c0.26,0.02,0.48-0.03,0.66-0.16c0.18-0.13,0.32-0.3,0.42-0.51c0.1-0.21,0.22-0.49,0.35-0.85c0.16-0.44,0.31-0.79,0.45-1.05
				s0.35-0.48,0.61-0.65c0.27-0.17,0.62-0.24,1.04-0.2c0.37,0.03,0.69,0.16,0.97,0.37c0.27,0.21,0.47,0.5,0.6,0.86
				c0.13,0.36,0.17,0.76,0.13,1.2c-0.06,0.64-0.26,1.15-0.62,1.53c-0.36,0.38-0.8,0.57-1.33,0.58l0.09-0.98
				c0.26-0.01,0.51-0.13,0.73-0.35c0.22-0.23,0.35-0.54,0.38-0.93c0.03-0.37-0.04-0.69-0.21-0.94c-0.17-0.25-0.43-0.39-0.78-0.42
				c-0.25-0.02-0.46,0.03-0.63,0.16c-0.17,0.13-0.3,0.29-0.4,0.49c-0.1,0.2-0.22,0.48-0.35,0.84c-0.16,0.44-0.32,0.79-0.46,1.06
				c-0.15,0.26-0.35,0.48-0.62,0.66c-0.27,0.17-0.62,0.24-1.05,0.21c-0.33-0.03-0.64-0.14-0.92-0.35c-0.28-0.2-0.5-0.48-0.65-0.85
				c-0.15-0.36-0.21-0.78-0.17-1.25C20.02,100.48,20.13,100.08,20.33,99.74z"/>
			<path class="st1" d="M24.91,107.57c0.54,0.29,0.97,0.69,1.28,1.21c0.31,0.51,0.48,1.09,0.49,1.73c0.02,0.75-0.15,1.4-0.5,1.97
				c-0.35,0.56-0.85,0.98-1.51,1.25l-0.02-1.07c0.41-0.2,0.72-0.48,0.94-0.84c0.21-0.36,0.32-0.79,0.31-1.29
				c-0.01-0.48-0.13-0.91-0.36-1.28c-0.23-0.38-0.55-0.67-0.97-0.88c-0.41-0.21-0.9-0.31-1.45-0.29c-0.54,0.01-1.02,0.13-1.43,0.36
				c-0.41,0.23-0.72,0.53-0.93,0.92c-0.22,0.39-0.32,0.82-0.31,1.3c0.01,0.5,0.13,0.92,0.36,1.28c0.23,0.35,0.55,0.62,0.97,0.8
				l0.02,1.07c-0.66-0.24-1.18-0.64-1.55-1.19s-0.56-1.2-0.58-1.95c-0.01-0.64,0.12-1.22,0.41-1.75c0.29-0.53,0.69-0.95,1.22-1.26
				c0.52-0.31,1.12-0.48,1.79-0.49C23.77,107.14,24.37,107.28,24.91,107.57z"/>
			<path class="st1" d="M27.32,120.06l-6.82,0.73l-0.09-0.89l3.09-0.33l-0.37-3.47l-3.09,0.33l-0.09-0.89l6.82-0.73l0.09,0.89
				l-2.99,0.32l0.37,3.47l2.99-0.32L27.32,120.06z"/>
			<path class="st1" d="M21.43,126.18l2.46-2.11L23.7,123l-2.76,0.51l-0.16-0.88l6.75-1.24l0.4,2.18c0.09,0.51,0.09,0.96-0.02,1.34
				c-0.11,0.38-0.3,0.69-0.56,0.92c-0.26,0.23-0.59,0.38-0.97,0.45c-0.46,0.09-0.9,0.03-1.3-0.18c-0.41-0.2-0.71-0.56-0.93-1.08
				l-2.52,2.21L21.43,126.18z M24.41,122.87l0.24,1.3c0.09,0.48,0.27,0.81,0.55,1.01c0.28,0.2,0.62,0.26,1.01,0.18
				c0.4-0.07,0.69-0.25,0.86-0.52c0.18-0.28,0.22-0.66,0.13-1.14l-0.24-1.3L24.41,122.87z"/>
			<path class="st1" d="M28.87,128.01l-6.68,1.58l-0.21-0.87l6.68-1.58L28.87,128.01z"/>
			<path class="st1" d="M23.02,132.13c0.05-0.39,0.19-0.72,0.41-0.99c0.22-0.28,0.51-0.47,0.86-0.58l0.26,0.92
				c-0.3,0.12-0.52,0.32-0.67,0.61c-0.15,0.29-0.16,0.64-0.03,1.07c0.12,0.41,0.31,0.7,0.59,0.88c0.27,0.18,0.57,0.22,0.89,0.13
				c0.25-0.07,0.44-0.2,0.55-0.39c0.12-0.18,0.19-0.39,0.21-0.62c0.02-0.23,0.03-0.54,0.02-0.92c-0.01-0.47,0-0.85,0.04-1.14
				c0.04-0.29,0.15-0.57,0.34-0.83c0.19-0.26,0.49-0.44,0.9-0.56c0.36-0.1,0.7-0.1,1.03,0c0.33,0.1,0.62,0.3,0.86,0.59
				c0.25,0.29,0.43,0.65,0.56,1.07c0.18,0.62,0.17,1.17-0.03,1.65c-0.2,0.48-0.54,0.82-1.04,1.02l-0.27-0.94
				c0.24-0.1,0.43-0.3,0.55-0.59c0.12-0.29,0.13-0.62,0.02-1.01c-0.1-0.36-0.28-0.63-0.53-0.8c-0.25-0.17-0.55-0.21-0.88-0.12
				c-0.24,0.07-0.42,0.19-0.53,0.37c-0.11,0.18-0.18,0.38-0.2,0.6c-0.02,0.22-0.03,0.53-0.03,0.91c0.01,0.47-0.01,0.85-0.05,1.15
				c-0.04,0.3-0.16,0.58-0.34,0.84c-0.19,0.26-0.49,0.45-0.91,0.57c-0.32,0.09-0.65,0.09-0.98,0.01c-0.33-0.09-0.64-0.27-0.91-0.56
				c-0.27-0.28-0.48-0.65-0.61-1.11C23,132.93,22.96,132.52,23.02,132.13z"/>
			<path class="st1" d="M32.23,138.72l-0.69,0.25l-0.64-1.76l-5.77,2.09l-0.3-0.84l5.77-2.09l-0.64-1.77l0.69-0.25L32.23,138.72z"/>
			<path class="st1" d="M32.96,140.44l-6.33,2.63l-0.34-0.83l6.33-2.63L32.96,140.44z"/>
			<path class="st1" d="M30.42,147.69l-1.29-2.7l-1.61,0.16l-0.41-0.85l7.22-0.71l0.45,0.93l-5.08,5.18l-0.41-0.85L30.42,147.69z
				 M30.97,147.15l2.59-2.62l-3.66,0.38L30.97,147.15z"/>
			<path class="st1" d="M33.08,155.62l-0.45-0.77l2.91-5.86l-4.72,2.75l-0.45-0.77l5.94-3.46l0.45,0.77l-2.9,5.86l4.71-2.74
				l0.45,0.77L33.08,155.62z"/>
			<path class="st1" d="M39.29,161.83l-1.78-2.4l-1.55,0.47l-0.56-0.76l6.95-2.07l0.62,0.83l-4,6.05l-0.56-0.76L39.29,161.83z
				 M39.72,161.19l2.04-3.06l-3.52,1.07L39.72,161.19z"/>
			<path class="st1" d="M42.22,167.75l1.05-3.07l-0.71-0.82l-2.12,1.84l-0.59-0.68l5.19-4.49l1.45,1.68
				c0.34,0.39,0.56,0.78,0.66,1.17c0.1,0.39,0.09,0.75-0.02,1.08c-0.11,0.33-0.31,0.62-0.61,0.88c-0.36,0.31-0.76,0.48-1.21,0.51
				c-0.45,0.03-0.9-0.12-1.34-0.46l-1.05,3.18L42.22,167.75z M43.11,163.39l0.86,1c0.32,0.37,0.65,0.56,0.99,0.59
				c0.34,0.03,0.66-0.09,0.96-0.35c0.31-0.26,0.47-0.56,0.48-0.89c0.01-0.33-0.14-0.68-0.46-1.05l-0.86-1L43.11,163.39z"/>
			<path class="st1" d="M51.85,167.89l-0.52,0.51l-1.32-1.33l-4.36,4.31l-0.63-0.64l4.36-4.31l-1.32-1.34l0.52-0.51L51.85,167.89z"
				/>
			<path class="st1" d="M65.73,178.58l-0.4,0.61l-2.5-1.62l-1.26,1.94l2.03,1.32l-0.4,0.61l-2.03-1.32l-1.68,2.59l-0.75-0.49
				l3.74-5.75L65.73,178.58z"/>
			<path class="st1" d="M67.35,179.52l-3.48,5.91l-0.77-0.45l3.48-5.91L67.35,179.52z"/>
			<path class="st1" d="M70.19,188.82l-0.79-0.41l-0.69-6.51l-2.51,4.85l-0.8-0.41l3.15-6.1l0.8,0.41l0.7,6.5l2.5-4.84l0.79,0.41
				L70.19,188.82z"/>
			<path class="st1" d="M75.11,184.3l-0.9,2.11l2.3,0.99l-0.29,0.68l-2.3-0.99l-0.93,2.17l2.57,1.1l-0.29,0.68l-3.39-1.46l2.71-6.31
				l3.39,1.46l-0.29,0.68L75.11,184.3z"/>
			<path class="st1" d="M83.71,192.36l-2.85-0.9l-0.98,1.29l-0.9-0.28l4.41-5.76l0.99,0.31l0.31,7.25l-0.9-0.28L83.71,192.36z
				 M83.68,191.58l-0.14-3.68l-2.22,2.93L83.68,191.58z"/>
			<path class="st1" d="M89.57,195.43l-0.95-3.1l-1.05-0.25l-0.64,2.73l-0.87-0.2l1.56-6.68l2.16,0.5c0.51,0.12,0.91,0.3,1.22,0.56
				s0.51,0.55,0.62,0.88c0.1,0.33,0.11,0.69,0.02,1.07c-0.11,0.46-0.33,0.83-0.68,1.12c-0.35,0.29-0.8,0.43-1.36,0.42l1.02,3.19
				L89.57,195.43z M87.73,191.38l1.28,0.3c0.47,0.11,0.85,0.08,1.15-0.1c0.29-0.18,0.48-0.46,0.57-0.85c0.09-0.4,0.05-0.73-0.13-1
				s-0.51-0.46-0.99-0.58l-1.28-0.3L87.73,191.38z"/>
			<path class="st1" d="M97.46,189.87l-0.12,0.72l-1.85-0.3l-0.99,6.05l-0.88-0.14l0.99-6.05l-1.86-0.3l0.12-0.72L97.46,189.87z"/>
			<path class="st1" d="M104.66,193.94c-0.41,0.35-1.02,0.5-1.82,0.45l-1.32-0.09l-0.19,2.86l-0.89-0.06l0.45-6.84l2.21,0.15
				c0.77,0.05,1.35,0.28,1.73,0.68c0.38,0.4,0.55,0.89,0.51,1.48C105.3,193.13,105.08,193.59,104.66,193.94z M104.01,193.4
				c0.25-0.2,0.39-0.5,0.41-0.9c0.06-0.85-0.4-1.3-1.37-1.36l-1.32-0.09l-0.17,2.51l1.32,0.09
				C103.39,193.69,103.76,193.6,104.01,193.4z"/>
			<path class="st1" d="M110.07,197.41l-1.68-2.78l-1.08,0.02l0.05,2.8l-0.9,0.02l-0.11-6.86l2.21-0.04
				c0.52-0.01,0.96,0.07,1.32,0.24c0.36,0.17,0.63,0.41,0.81,0.71c0.18,0.3,0.28,0.64,0.28,1.03c0.01,0.47-0.12,0.89-0.39,1.26
				c-0.27,0.37-0.67,0.61-1.21,0.74l1.77,2.85L110.07,197.41z M107.3,193.93l1.32-0.02c0.49-0.01,0.85-0.13,1.09-0.38
				c0.24-0.24,0.36-0.56,0.35-0.97c-0.01-0.41-0.13-0.72-0.37-0.94c-0.24-0.22-0.61-0.32-1.1-0.32l-1.32,0.02L107.3,193.93z"/>
			<path class="st1" d="M113.17,190.44l0.35,6.85l-0.9,0.05l-0.35-6.85L113.17,190.44z"/>
			<path class="st1" d="M120.65,196.65l-0.89,0.09l-4.16-5.05l0.58,5.43l-0.89,0.09l-0.73-6.83l0.89-0.09l4.16,5.04l-0.58-5.42
				l0.89-0.09L120.65,196.65z"/>
			<path class="st1" d="M125.39,188.86l0.13,0.72l-1.84,0.33l1.09,6.03l-0.88,0.16l-1.09-6.03l-1.85,0.33l-0.13-0.72L125.39,188.86z
				"/>
			<path class="st1" d="M127.23,188.42l1.53,6.69l-0.87,0.2l-1.53-6.69L127.23,188.42z"/>
			<path class="st1" d="M135.66,193.24l-0.86,0.25l-4.97-4.25l1.51,5.25l-0.86,0.25l-1.9-6.6l0.86-0.25l4.97,4.24l-1.51-5.24
				l0.86-0.25L135.66,193.24z"/>
			<path class="st1" d="M140.57,186.24c-0.32-0.3-0.69-0.5-1.11-0.57c-0.42-0.08-0.85-0.03-1.29,0.15
				c-0.45,0.17-0.81,0.43-1.09,0.77c-0.28,0.34-0.45,0.75-0.51,1.21s0.01,0.94,0.2,1.45c0.19,0.5,0.46,0.9,0.82,1.2
				c0.35,0.3,0.75,0.48,1.18,0.55c0.44,0.07,0.88,0.02,1.32-0.16c0.62-0.24,1.07-0.62,1.33-1.15c0.26-0.53,0.3-1.12,0.12-1.79
				l-2.55,0.98l-0.26-0.68l3.44-1.32l0.25,0.64c0.15,0.55,0.17,1.09,0.06,1.64c-0.11,0.55-0.35,1.04-0.71,1.46
				c-0.36,0.43-0.82,0.76-1.39,0.97c-0.59,0.23-1.19,0.3-1.79,0.21c-0.6-0.09-1.13-0.33-1.61-0.72c-0.48-0.39-0.83-0.89-1.07-1.52
				c-0.24-0.62-0.31-1.24-0.22-1.85c0.09-0.61,0.33-1.15,0.71-1.61c0.38-0.47,0.87-0.82,1.46-1.04c0.68-0.26,1.35-0.32,2-0.19
				c0.65,0.14,1.22,0.46,1.69,0.98L140.57,186.24z"/>
			<path class="st1" d="M152.1,186.03l-1.22-0.38c-0.13,0.46-0.33,0.86-0.59,1.18c-0.26,0.33-0.6,0.6-1.02,0.83
				c-0.42,0.22-0.83,0.34-1.23,0.36c-0.4,0.02-0.76-0.06-1.09-0.25c-0.32-0.19-0.58-0.46-0.78-0.83c-0.22-0.42-0.3-0.86-0.23-1.31
				c0.07-0.45,0.29-0.89,0.66-1.33c-0.3-0.12-0.54-0.25-0.72-0.4c-0.18-0.14-0.33-0.32-0.44-0.54c-0.14-0.26-0.19-0.52-0.17-0.79
				c0.02-0.27,0.12-0.53,0.31-0.78c0.18-0.24,0.43-0.45,0.75-0.62c0.31-0.17,0.62-0.25,0.91-0.25c0.3,0,0.56,0.08,0.79,0.23
				c0.23,0.16,0.41,0.37,0.54,0.64l-0.79,0.42c-0.12-0.24-0.29-0.39-0.5-0.45c-0.21-0.06-0.43-0.04-0.65,0.08
				c-0.23,0.12-0.38,0.29-0.46,0.49c-0.07,0.21-0.05,0.41,0.05,0.61c0.09,0.17,0.23,0.32,0.41,0.43c0.18,0.11,0.45,0.23,0.8,0.34
				l2.77,0.86l0.03-0.33l0.07-1.3l0.85-0.45l-0.06,1.61c-0.01,0.23-0.02,0.47-0.06,0.73l2.09,0.64L152.1,186.03z M149.67,186.35
				c0.19-0.26,0.33-0.57,0.42-0.94l-2.73-0.85c-0.59,0.68-0.72,1.32-0.4,1.94c0.18,0.34,0.46,0.56,0.82,0.66
				c0.37,0.1,0.75,0.04,1.14-0.17C149.23,186.82,149.48,186.61,149.67,186.35z"/>
			<path class="st1" d="M155.83,175.55l0.41,0.6l-2.48,1.66l1.29,1.92l2.01-1.35l0.41,0.61l-2.01,1.35l1.72,2.57l-0.74,0.5
				l-3.82-5.7L155.83,175.55z"/>
			<path class="st1" d="M163.64,178.24l-3.01-1.23l-0.86,0.66l1.71,2.22l-0.71,0.55l-4.18-5.44l1.76-1.35
				c0.41-0.32,0.81-0.51,1.2-0.59c0.39-0.08,0.75-0.05,1.08,0.08c0.32,0.13,0.6,0.35,0.84,0.66c0.29,0.37,0.43,0.79,0.44,1.24
				c0,0.45-0.17,0.89-0.53,1.32l3.12,1.23L163.64,178.24z M159.33,177.1l1.04-0.8c0.39-0.3,0.6-0.61,0.65-0.95
				c0.05-0.34-0.05-0.66-0.3-0.98c-0.25-0.32-0.54-0.5-0.86-0.53c-0.33-0.03-0.68,0.1-1.07,0.4l-1.05,0.8L159.33,177.1z"/>
			<path class="st1" d="M167.74,172.71l-2.23,1.99l0.61,1.5l-0.7,0.63l-2.7-6.74l0.77-0.69l6.39,3.44l-0.7,0.63L167.74,172.71z
				 M167.06,172.34l-3.23-1.75l1.39,3.41L167.06,172.34z"/>
			<path class="st1" d="M170.71,162.11l4.97,4.65l-0.61,0.65l-3.71-3.47l2.16,5.12l-0.43,0.46l-5.27-1.82l3.72,3.48l-0.61,0.65
				l-4.97-4.65l0.66-0.7l5.83,2.01l-2.39-5.69L170.71,162.11z"/>
			<path class="st1" d="M172.06,160.31l5.3,4.36l-0.57,0.69l-5.3-4.36L172.06,160.31z"/>
			<path class="st1" d="M181.68,158.97l-0.53,0.72l-6.54-0.33l4.4,3.23l-0.53,0.72l-5.54-4.07l0.53-0.72l6.53,0.32l-4.39-3.23
				l0.53-0.72L181.68,158.97z"/>
			<path class="st1" d="M181.3,150.41c-0.44-0.05-0.85,0.03-1.22,0.22c-0.37,0.19-0.69,0.5-0.94,0.9c-0.25,0.41-0.38,0.83-0.39,1.28
				c-0.01,0.44,0.1,0.86,0.34,1.26c0.24,0.4,0.58,0.74,1.04,1.02c0.46,0.28,0.92,0.43,1.38,0.46c0.46,0.02,0.89-0.07,1.27-0.29
				c0.39-0.21,0.71-0.52,0.95-0.93c0.35-0.57,0.46-1.15,0.35-1.72s-0.45-1.08-0.99-1.49l-1.42,2.34l-0.62-0.38l1.92-3.15l0.59,0.36
				c0.45,0.34,0.8,0.76,1.05,1.26c0.24,0.5,0.35,1.03,0.33,1.6c-0.02,0.56-0.19,1.1-0.51,1.62c-0.33,0.54-0.76,0.96-1.29,1.25
				c-0.53,0.29-1.1,0.43-1.71,0.42c-0.61-0.02-1.2-0.2-1.78-0.55c-0.57-0.35-1.01-0.79-1.31-1.33c-0.3-0.54-0.44-1.11-0.42-1.71
				c0.02-0.6,0.19-1.18,0.52-1.72c0.38-0.62,0.87-1.08,1.47-1.37c0.6-0.29,1.25-0.38,1.94-0.25L181.3,150.41z"/>
			<path class="st1" d="M192.87,130.92l-0.81,2.88l1.32,0.94l-0.26,0.91l-5.89-4.24l0.28-1l7.23-0.53l-0.26,0.91L192.87,130.92z
				 M192.1,130.97l-3.67,0.26l3,2.13L192.1,130.97z"/>
			<path class="st1" d="M195.76,124.97l-3.07,1.05l-0.21,1.06l2.75,0.55l-0.18,0.88l-6.72-1.36l0.44-2.17
				c0.1-0.51,0.28-0.92,0.52-1.24c0.24-0.32,0.53-0.53,0.86-0.64c0.33-0.11,0.69-0.13,1.07-0.06c0.46,0.09,0.84,0.31,1.14,0.65
				c0.3,0.34,0.45,0.79,0.46,1.34l3.16-1.12L195.76,124.97z M191.77,126.94l0.26-1.29c0.1-0.48,0.05-0.86-0.14-1.14
				c-0.19-0.29-0.48-0.47-0.87-0.55c-0.4-0.08-0.73-0.03-1,0.17s-0.45,0.53-0.55,1.01l-0.26,1.29L191.77,126.94z"/>
			<path class="st1" d="M189.97,117.26l0.72,0.1l-0.25,1.85l6.08,0.81l-0.12,0.89l-6.08-0.81l-0.25,1.86l-0.72-0.1L189.97,117.26z"
				/>
			<path class="st1" d="M192.4,108.65c-0.41,0.18-0.72,0.45-0.95,0.8c-0.23,0.36-0.35,0.77-0.36,1.25c-0.01,0.48,0.09,0.91,0.3,1.3
				c0.21,0.39,0.52,0.7,0.92,0.93c0.41,0.23,0.88,0.35,1.41,0.36c0.54,0.01,1.01-0.09,1.43-0.29c0.41-0.21,0.73-0.5,0.96-0.88
				c0.23-0.38,0.35-0.81,0.36-1.29c0.02-0.67-0.17-1.22-0.56-1.67c-0.39-0.44-0.93-0.71-1.6-0.8l-0.07,2.73l-0.73-0.02l0.09-3.69
				l0.69,0.02c0.56,0.07,1.08,0.26,1.54,0.57c0.46,0.31,0.82,0.72,1.08,1.22c0.26,0.5,0.38,1.05,0.37,1.65
				c-0.02,0.64-0.18,1.21-0.49,1.73c-0.31,0.52-0.74,0.92-1.28,1.21c-0.54,0.29-1.14,0.43-1.81,0.41c-0.67-0.02-1.27-0.18-1.79-0.5
				c-0.53-0.32-0.93-0.74-1.22-1.28c-0.29-0.53-0.42-1.12-0.41-1.75c0.02-0.73,0.21-1.37,0.59-1.92c0.37-0.55,0.89-0.95,1.55-1.19
				L192.4,108.65z"/>
			<path class="st1" d="M195.48,102.06l0.17,2.99l1.55,0.46l0.05,0.94l-6.95-2.08l-0.06-1.03l6.67-2.86l0.05,0.94L195.48,102.06z
				 M194.77,102.36l-3.39,1.44l3.53,1.04L194.77,102.36z"/>
			<path class="st1" d="M195.91,98.31l-0.29-2.38l0.72-0.09l0.4,3.27l-6.81,0.84l-0.11-0.89L195.91,98.31z"/>
			<path class="st1" d="M195.29,93.93l-0.41-2.37l0.72-0.12l0.57,3.25l-6.76,1.18l-0.15-0.88L195.29,93.93z"/>
			<path class="st1" d="M189.18,90.79l2.23-0.52l-0.56-2.43l0.72-0.17l0.56,2.44l2.3-0.53l-0.63-2.72l0.72-0.17l0.83,3.6l-6.69,1.55
				l-0.83-3.6l0.72-0.17L189.18,90.79z"/>
			<path class="st1" d="M193.05,81.61l-2.21,2.38l0.31,1.04l2.68-0.81l0.26,0.86l-6.57,1.99l-0.64-2.12
				c-0.15-0.5-0.19-0.94-0.13-1.33c0.07-0.39,0.22-0.72,0.46-0.98c0.24-0.26,0.54-0.44,0.91-0.55c0.45-0.14,0.89-0.13,1.31,0.03
				c0.42,0.16,0.77,0.48,1.04,0.96l2.25-2.48L193.05,81.61z M190.47,85.23l-0.38-1.26c-0.14-0.46-0.36-0.78-0.66-0.94
				c-0.3-0.16-0.64-0.19-1.02-0.07c-0.39,0.12-0.66,0.32-0.8,0.62c-0.14,0.29-0.14,0.68,0,1.15l0.38,1.26L190.47,85.23z"/>
			<path class="st1" d="M184.1,77.03l4.79,0.57l2.42-0.92l0.32,0.84l-2.42,0.92l-3.19,3.62l-0.35-0.93l2.64-2.82l-3.85-0.35
				L184.1,77.03z"/>
		</g>
		<g>
			<path class="st1" d="M46.48,55.89l-2.11,2.58l0.88,1.41l-1.44,1.76l-4.87-8.16l1.6-1.95l8.96,3.15l-1.46,1.78L46.48,55.89z
				 M44.83,55.26l-3.23-1.21l1.84,2.92L44.83,55.26z"/>
			<path class="st1" d="M53.27,51.01l-3.69-1.1l-0.37,0.37l2.37,2.4l-1.55,1.53l-6.27-6.36l2.6-2.56c0.5-0.49,1.01-0.83,1.54-1
				c0.53-0.17,1.03-0.19,1.5-0.06c0.48,0.13,0.9,0.39,1.27,0.76c0.42,0.42,0.67,0.92,0.76,1.49c0.09,0.57-0.03,1.15-0.36,1.75
				l3.95,1.07L53.27,51.01z M48.12,49.18l0.96-0.95c0.28-0.28,0.43-0.56,0.43-0.84c0.01-0.28-0.12-0.55-0.37-0.8
				c-0.24-0.24-0.5-0.36-0.78-0.36c-0.28,0-0.56,0.14-0.84,0.42l-0.96,0.95L48.12,49.18z"/>
			<path class="st1" d="M55.21,37.58l1.1,1.35l-1.84,1.49l4.53,5.58l-1.69,1.37l-4.53-5.58l-1.84,1.49l-1.1-1.35L55.21,37.58z"/>
			<path class="st1" d="M60.3,36.52c-0.03-0.79,0.14-1.53,0.53-2.21c0.38-0.68,0.94-1.25,1.68-1.7c0.91-0.55,1.83-0.78,2.76-0.69
				s1.76,0.48,2.48,1.17l-2.04,1.24C65.36,34.11,65,33.99,64.62,34s-0.75,0.11-1.1,0.33c-0.57,0.35-0.92,0.83-1.03,1.44
				c-0.11,0.61,0.03,1.26,0.44,1.92c0.4,0.67,0.9,1.09,1.5,1.28c0.6,0.18,1.18,0.1,1.76-0.25c0.36-0.22,0.62-0.49,0.8-0.83
				c0.18-0.34,0.25-0.71,0.2-1.12l2.05-1.24c0.28,0.96,0.25,1.87-0.11,2.74c-0.36,0.87-0.99,1.57-1.9,2.12
				c-0.74,0.45-1.5,0.69-2.29,0.71c-0.78,0.02-1.52-0.16-2.2-0.55c-0.68-0.39-1.25-0.96-1.71-1.72
				C60.57,38.08,60.33,37.31,60.3,36.52z"/>
			<path class="st1" d="M76.18,33.91l-3.03,1.39l0.17,1.66l-2.07,0.95l-0.77-9.47l2.29-1.05l6.65,6.78l-2.1,0.96L76.18,33.91z
				 M74.97,32.62L72.6,30.1l0.37,3.43L74.97,32.62z"/>
			<path class="st1" d="M84.59,23.06l-1.06,6.65l0.93,2.8l-2.07,0.68l-0.93-2.8l-4.81-4.71L79,24.91l2.82,3.01l0.46-4.09
				L84.59,23.06z"/>
			<path class="st1" d="M96.18,20.61l1.73,8.76l-2.13,0.42l-1.04-5.26l-0.92,5.64l-1.72,0.34l-3.01-4.88l1.04,5.27l-2.13,0.42
				l-1.73-8.76l2.52-0.5l3.66,5.58l1.24-6.55L96.18,20.61z"/>
			<path class="st1" d="M104.65,27.34l-3.33,0.22l-0.43,1.61l-2.27,0.15l2.63-9.13l2.51-0.17l3.82,8.7l-2.3,0.15L104.65,27.34z
				 M103.98,25.7l-1.32-3.19l-0.87,3.34L103.98,25.7z"/>
			<path class="st1" d="M116.29,29.12l-2.17-0.1l-3.38-5.68l-0.26,5.5l-2.17-0.1l0.42-8.92l2.17,0.1l3.37,5.7l0.26-5.53l2.17,0.1
				L116.29,29.12z"/>
			<path class="st1" d="M121.76,22.93c0.51-0.6,1.14-1.03,1.88-1.27c0.75-0.24,1.54-0.28,2.39-0.11c1.04,0.21,1.87,0.66,2.51,1.36
				c0.63,0.7,0.98,1.54,1.04,2.54l-2.35-0.47c-0.1-0.4-0.29-0.73-0.58-0.98c-0.28-0.26-0.63-0.42-1.04-0.51
				c-0.66-0.13-1.24-0.01-1.73,0.37c-0.5,0.38-0.83,0.95-0.98,1.71s-0.07,1.42,0.24,1.96c0.32,0.54,0.8,0.87,1.46,1.01
				c0.41,0.08,0.79,0.06,1.15-0.07c0.36-0.13,0.66-0.36,0.91-0.69l2.35,0.47c-0.44,0.9-1.08,1.55-1.93,1.94
				c-0.85,0.4-1.79,0.49-2.83,0.28c-0.85-0.17-1.57-0.51-2.16-1.02c-0.59-0.51-1.01-1.14-1.25-1.89c-0.24-0.75-0.27-1.56-0.1-2.42
				C120.91,24.27,121.25,23.53,121.76,22.93z"/>
			<path class="st1" d="M131.42,31.64c-0.54-0.59-0.9-1.28-1.07-2.07c-0.17-0.79-0.12-1.6,0.15-2.43c0.27-0.83,0.71-1.51,1.32-2.04
				s1.31-0.87,2.09-1.03c0.79-0.15,1.58-0.1,2.38,0.17c0.8,0.26,1.47,0.69,2.01,1.28c0.54,0.59,0.9,1.28,1.06,2.06
				c0.17,0.79,0.11,1.6-0.16,2.43c-0.27,0.83-0.71,1.51-1.32,2.05c-0.61,0.54-1.3,0.88-2.08,1.04c-0.78,0.15-1.57,0.1-2.37-0.16
				C132.63,32.65,131.96,32.23,131.42,31.64z M135.9,30.89c0.55-0.32,0.95-0.85,1.2-1.59c0.25-0.75,0.24-1.41-0.02-2
				c-0.26-0.58-0.73-0.98-1.4-1.21c-0.69-0.23-1.3-0.18-1.86,0.13c-0.55,0.31-0.95,0.84-1.2,1.6c-0.25,0.75-0.24,1.41,0.02,2
				c0.26,0.58,0.73,0.98,1.42,1.21C134.72,31.25,135.34,31.21,135.9,30.89z"/>
			<path class="st1" d="M151.64,30.94l-3.89,8.04l-1.96-0.95l2.33-4.82L144,37.16l-1.58-0.76l0.53-5.71l-2.34,4.83l-1.96-0.95
				l3.89-8.04l2.31,1.12l-0.44,6.66l4.93-4.49L151.64,30.94z"/>
			<path class="st1" d="M156.79,39.3c-0.43,0.23-0.93,0.33-1.48,0.28c-0.56-0.04-1.14-0.26-1.75-0.66l-1.14-0.73l-1.73,2.7
				l-1.83-1.17l4.82-7.52l2.97,1.9c0.6,0.38,1.04,0.81,1.32,1.29c0.28,0.47,0.41,0.96,0.38,1.45c-0.03,0.5-0.19,0.98-0.49,1.45
				C157.57,38.73,157.22,39.07,156.79,39.3z M155.29,37.63c0.28-0.05,0.51-0.23,0.7-0.53s0.26-0.59,0.19-0.86
				c-0.07-0.27-0.27-0.52-0.62-0.75l-1-0.64l-1.21,1.88l1,0.64C154.7,37.6,155.01,37.69,155.29,37.63z"/>
			<path class="st1" d="M160.66,46.16l-2.6-2.08l-1.4,0.9l-1.78-1.42l8.11-4.95l1.96,1.58l-3.06,8.99l-1.8-1.44L160.66,46.16z
				 M161.27,44.5l1.18-3.24l-2.9,1.87L161.27,44.5z"/>
			<path class="st1" d="M168.03,55.36l-1.53-1.55l1.36-6.46l-3.92,3.88l-1.53-1.55l6.35-6.28l1.53,1.55l-1.37,6.48l3.93-3.89
				l1.53,1.55L168.03,55.36z"/>
			<path class="st1" d="M180.65,56.83l-6.61,1.29l-2.31,1.83l-1.35-1.7l2.31-1.83l2.76-6.14l1.53,1.93l-1.86,3.68l4-0.98
				L180.65,56.83z"/>
		</g>
		<g>
			<g>
				<g>
					<path class="st1" d="M108.93,103.06c9.83,0,18.11,5.95,20.47,13.98h4.66c-2.41-10.54-12.77-18.49-25.14-18.49
						c-14.15,0-25.67,10.4-25.67,23.19s11.51,23.19,25.67,23.19c12.37,0,22.73-7.95,25.14-18.49h-4.66
						c-2.37,8.03-10.65,13.98-20.47,13.98c-11.67,0-21.16-8.38-21.16-18.68C87.77,111.44,97.26,103.06,108.93,103.06z"/>
				</g>
			</g>
			<g>
				<g>
					<path class="st1" d="M108.93,158.88c20.15,0,36.82-14.18,39.29-32.45h-4.55c-2.46,15.77-17.1,27.93-34.74,27.93
						c-19.36,0-35.11-14.64-35.11-32.63c0-17.99,15.75-32.63,35.11-32.63c17.64,0,32.28,12.16,34.74,27.93h4.56
						c-0.85-6.28-3.39-12.08-7.16-16.99c-0.07-0.2-0.16-0.39-0.28-0.56l-26.19-36.53l0,0l-5.66-7.91l-3.91,5.46l0,0L77.07,99.49
						c-0.13,0.18-0.22,0.37-0.29,0.57c-4.7,6.11-7.48,13.59-7.48,21.68C69.3,142.22,87.08,158.88,108.93,158.88z M108.93,62.81
						l18.82,26.25c-5.6-2.85-12.02-4.47-18.82-4.47c-6.81,0-13.22,1.62-18.83,4.47L108.93,62.81z"/>
				</g>
			</g>
		</g>
		<g>
			<g>
				<circle class="st1" cx="182.85" cy="67.68" r="1.05"/>
			</g>
		</g>
		<g>
			<g>
				<circle class="st1" cx="34.25" cy="67.68" r="1.05"/>
			</g>
		</g>
		<g>
			<g>
				<circle class="st1" cx="54.68" cy="174.79" r="1.05"/>
			</g>
		</g>
		<g>
			<g>
				<circle class="st1" cx="186.62" cy="141.9" r="1.05"/>
			</g>
		</g>
		<g>
			<path class="st1" d="M108.63,176.29c-37.31,0-67.66-30.35-67.66-67.66c0-37.31,30.35-67.66,67.66-67.66s67.66,30.35,67.66,67.66
				C176.29,145.94,145.94,176.29,108.63,176.29z M108.63,41.32c-37.11,0-67.31,30.19-67.31,67.31c0,37.11,30.19,67.31,67.31,67.31
				s67.31-30.19,67.31-67.31C175.94,71.51,145.74,41.32,108.63,41.32z"/>
		</g>
		<g>
			<path class="st1" d="M108.63,208.71c-26.73,0-51.86-10.41-70.77-29.31S8.55,135.36,8.55,108.63s10.41-51.86,29.31-70.77
				c18.9-18.9,44.03-29.31,70.77-29.31c26.73,0,51.86,10.41,70.77,29.31c18.9,18.9,29.31,44.03,29.31,70.77
				s-10.41,51.86-29.31,70.77S135.36,208.71,108.63,208.71z M108.63,8.9C53.64,8.9,8.9,53.64,8.9,108.63s44.74,99.73,99.73,99.73
				c54.99,0,99.73-44.74,99.73-99.73S163.62,8.9,108.63,8.9z"/>
		</g>
	</g>
</g>
</svg>
